<?xml version="1.0" encoding="iso-8859-1"?>
<!-- Generator: Adobe Illustrator 19.0.0, SVG Export Plug-In . SVG Version: 6.00 Build 0)  -->
<svg version="1.1" id="Capa_1" xmlns="http://www.w3.org/2000/svg" xmlns:xlink="http://www.w3.org/1999/xlink" x="0px" y="0px"
	 viewBox="0 0 470 470" style="enable-background:new 0 0 470 470;" xml:space="preserve">
<g>
	<path d="M408.23,346.461h-13.951c13.122-11.336,21.451-28.077,21.451-46.737c0-34.06-27.71-61.77-61.77-61.77h-17.465H133.514
		c-31.53,0-57.593,23.736-61.308,54.27h-9.937c-4.142,0-7.5,3.358-7.5,7.5s3.358,7.5,7.5,7.5h9.937
		c2.074,17.045,11.103,31.972,24.173,41.833c-5.616-1.681-11.56-2.596-17.716-2.596c-31.483,0-57.517,23.736-61.227,54.27H7.5
		c-4.142,0-7.5,3.358-7.5,7.5s3.358,7.5,7.5,7.5h9.936C21.147,446.264,47.18,470,78.664,470c23.615,0,44.173-13.295,54.587-32.78
		c10.402,19.485,30.936,32.78,54.523,32.78c0.019,0,220.456,0,220.456,0C442.29,470,470,442.29,470,408.23
		S442.29,346.461,408.23,346.461z M408.23,455H228.056c13.144-11.336,21.488-28.091,21.488-46.769
		c0-18.678-8.345-35.433-21.489-46.77h125.262c0.213,0.018,0.426,0.032,0.643,0.032c0.429,0,0.853-0.024,1.28-0.032h52.989
		c25.789,0,46.77,20.981,46.77,46.77S434.019,455,408.23,455z M78.664,455c-23.2,0-42.495-17.035-46.09-39.27h46.162
		c4.142,0,7.5-3.358,7.5-7.5s-3.358-7.5-7.5-7.5H32.574c3.595-22.235,22.89-39.27,46.09-39.27c23.271,0,42.625,17.035,46.231,39.27
		h-8.356c-4.142,0-7.5,3.358-7.5,7.5s3.358,7.5,7.5,7.5h8.356C121.289,437.965,101.935,455,78.664,455z M133.504,292.224h-46.16
		c3.6-22.234,22.923-39.268,46.157-39.27c25.797,0.005,46.773,20.984,46.773,46.77c0,25.353-20.282,46.044-45.471,46.737h-1.299
		c-0.147,0-0.29,0.014-0.435,0.022c-23.041-0.212-42.148-17.163-45.726-39.259h46.16c4.142,0,7.5-3.358,7.5-7.5
		S137.646,292.224,133.504,292.224z M400.73,299.724c0,25.359-20.292,46.055-45.49,46.737H187.784c-0.019,0-13.96,0-13.96,0
		c13.122-11.336,21.451-28.077,21.451-46.737c0-18.678-8.345-35.433-21.488-46.77H353.96
		C379.75,252.954,400.73,273.935,400.73,299.724z M187.774,400.73h-46.16c3.6-22.232,22.919-39.265,46.151-39.27
		c25.804,0.005,46.78,20.984,46.78,46.77c0,25.782-20.971,46.759-46.751,46.769c-23.259-0.003-42.58-17.036-46.18-39.269h46.16
		c4.142,0,7.5-3.358,7.5-7.5S191.916,400.73,187.774,400.73z M133.504,361.494c0.436,0,0.866-0.024,1.299-0.033h12.689
		c-5.774,4.98-10.624,11.001-14.242,17.78c-4.264-7.978-10.225-14.919-17.406-20.333
		C121.443,360.582,127.368,361.494,133.504,361.494z"/>
	<path d="M141.004,215.454v-97.359h187.991v97.359c0,4.142,3.358,7.5,7.5,7.5s7.5-3.358,7.5-7.5V110.595c0-4.142-3.358-7.5-7.5-7.5
		H242.5V75h-15v28.095h-93.996c-4.142,0-7.5,3.358-7.5,7.5v104.859c0,4.142,3.358,7.5,7.5,7.5S141.004,219.596,141.004,215.454z"/>
	<path d="M163.504,148.095h142.991c4.142,0,7.5-3.358,7.5-7.5s-3.358-7.5-7.5-7.5H163.504c-4.142,0-7.5,3.358-7.5,7.5
		S159.362,148.095,163.504,148.095z"/>
	<path d="M250,75c4.142,0,7.5-3.358,7.5-7.5V45h24.144c12.407,0,22.5-10.094,22.5-22.5S294.051,0,281.644,0h-93.288
		c-12.407,0-22.5,10.094-22.5,22.5s10.093,22.5,22.5,22.5H212.5v22.5c0,4.142,3.358,7.5,7.5,7.5h7.5h15H250z M180.856,22.5
		c0-4.135,3.365-7.5,7.5-7.5h93.288c4.135,0,7.5,3.365,7.5,7.5s-3.365,7.5-7.5,7.5H250c-4.142,0-7.5,3.358-7.5,7.5V60h-15V37.5
		c0-4.142-3.358-7.5-7.5-7.5h-31.644C184.221,30,180.856,26.635,180.856,22.5z"/>
</g>
<g>
</g>
<g>
</g>
<g>
</g>
<g>
</g>
<g>
</g>
<g>
</g>
<g>
</g>
<g>
</g>
<g>
</g>
<g>
</g>
<g>
</g>
<g>
</g>
<g>
</g>
<g>
</g>
<g>
</g>
</svg>
